<?xml version="1.0" encoding="UTF-8" standalone="no"?>
<!DOCTYPE svg PUBLIC "-//W3C//DTD SVG 20010904//EN" "http://www.w3.org/TR/2001/REC-SVG-20010904/DTD/svg10.dtd">

<svg xmlns="http://www.w3.org/2000/svg"
  viewBox="0 0 300 73">
  <g
    fill="#13795b"
    stroke-width="0">
    <path
      d="M 0.00,0.00
        C 0.00,0.00 65.00,0.00 65.00,0.00
          65.00,0.00 65.00,16.00 65.00,16.00
          65.00,16.00 0.00,16.00 0.00,16.00
          0.00,16.00 0.00,0.00 0.00,0.00 Z
        M 75.00,0.00
        C 75.00,0.00 137.00,0.00 137.00,0.00
          137.00,0.00 137.00,3.00 137.00,3.00
          137.00,3.00 140.00,3.00 140.00,3.00
          140.00,3.00 140.00,39.00 140.00,39.00
          140.00,39.00 137.00,39.00 137.00,39.00
          137.00,39.00 137.00,42.00 137.00,42.00
          137.00,42.00 125.00,42.00 125.00,42.00
          125.00,42.00 125.00,55.00 125.00,55.00
          125.00,55.00 128.00,55.00 128.00,55.00
          128.00,55.00 128.00,58.00 128.00,58.00
          128.00,58.00 140.00,58.00 140.00,58.00
          140.00,58.00 140.00,73.00 140.00,73.00
          140.00,73.00 112.00,73.00 112.00,73.00
          112.00,73.00 112.00,70.00 112.00,70.00
          112.00,70.00 109.00,70.00 109.00,70.00
          109.00,70.00 109.00,42.00 109.00,42.00
          109.00,42.00 93.00,42.00 93.00,42.00
          93.00,42.00 93.00,45.00 93.00,45.00
          93.00,45.00 90.00,45.00 90.00,45.00
          90.00,45.00 90.00,73.00 90.00,73.00
          90.00,73.00 75.00,73.00 75.00,73.00
          75.00,73.00 75.00,29.00 75.00,29.00
          75.00,29.00 78.00,29.00 78.00,29.00
          78.00,29.00 78.00,26.00 78.00,26.00
          78.00,26.00 122.00,26.00 122.00,26.00
          122.00,26.00 122.00,23.02 122.00,23.02
          122.00,23.02 125.00,23.00 125.00,23.00
          125.00,23.00 125.00,19.00 125.00,19.00
          125.00,19.00 122.00,18.98 122.00,18.98
          122.00,18.98 122.00,16.00 122.00,16.00
          122.00,16.00 75.00,16.00 75.00,16.00
          75.00,16.00 75.00,0.00 75.00,0.00 Z
        M 150.00,0.00
        C 150.00,0.00 165.00,0.00 165.00,0.00
          165.00,0.00 165.00,73.00 165.00,73.00
          165.00,73.00 150.00,73.00 150.00,73.00
          150.00,73.00 150.00,0.00 150.00,0.00 Z
        M 178.00,3.00
        C 178.00,3.00 178.00,0.00 178.00,0.00
          178.00,0.00 237.00,0.00 237.00,0.00
          237.00,0.00 237.00,3.00 237.00,3.00
          237.00,3.00 240.00,3.00 240.00,3.00
          240.00,3.00 240.00,29.00 240.00,29.00
          240.00,29.00 225.00,29.00 225.00,29.00
          225.00,29.00 225.00,19.00 225.00,19.00
          225.00,19.00 222.00,19.00 222.00,19.00
          222.00,19.00 222.00,16.00 222.00,16.00
          222.00,16.00 194.00,16.00 194.00,16.00
          194.00,16.00 194.00,19.00 194.00,19.00
          194.00,19.00 191.00,19.00 191.00,19.00
          191.00,19.00 191.00,54.00 191.00,54.00
          191.00,54.00 194.00,54.03 194.00,54.03
          194.00,54.03 194.00,57.00 194.00,57.00
          194.00,57.00 222.00,57.00 222.00,57.00
          222.00,57.00 222.00,54.01 222.00,54.01
          222.00,54.01 225.00,54.00 225.00,54.00
          225.00,54.00 225.00,45.00 225.00,45.00
          225.00,45.00 240.00,45.00 240.00,45.00
          240.00,45.00 240.00,70.00 240.00,70.00
          240.00,70.00 237.00,70.00 237.00,70.00
          237.00,70.00 237.00,73.00 237.00,73.00
          237.00,73.00 178.00,73.00 178.00,73.00
          178.00,73.00 178.00,70.00 178.00,70.00
          178.00,70.00 175.00,70.00 175.00,70.00
          175.00,70.00 175.00,3.00 175.00,3.00
          175.00,3.00 178.00,3.00 178.00,3.00 Z
        M 3.00,29.00
        C 3.00,29.00 3.00,26.00 3.00,26.00
          3.00,26.00 65.00,26.00 65.00,26.00
          65.00,26.00 65.00,43.00 65.00,43.00
          65.00,43.00 19.00,43.00 19.00,43.00
          19.00,43.00 19.00,45.99 19.00,45.99
          19.00,45.99 16.00,46.00 16.00,46.00
          16.00,46.00 16.00,54.00 16.00,54.00
          16.00,54.00 18.99,54.00 18.99,54.00
          18.99,54.00 19.00,57.00 19.00,57.00
          19.00,57.00 65.00,57.00 65.00,57.00
          65.00,57.00 65.00,73.00 65.00,73.00
          65.00,73.00 3.00,73.00 3.00,73.00
          3.00,73.00 3.00,70.00 3.00,70.00
          3.00,70.00 0.00,70.00 0.00,70.00
          0.00,70.00 0.00,29.00 0.00,29.00
          0.00,29.00 3.00,29.00 3.00,29.00 Z" />
  </g>
</svg>