<?xml version="1.0" encoding="UTF-8" standalone="no"?>
<!DOCTYPE svg PUBLIC "-//W3C//DTD SVG 20010904//EN" "http://www.w3.org/TR/2001/REC-SVG-20010904/DTD/svg10.dtd">

<svg xmlns="http://www.w3.org/2000/svg"
  viewBox="0 0 1500 800" 
  fill="#b0e8d0">
  <path
    d="M0 409L31.5 413.3C63 417.7 126 426.3 189.2 422.2C252.3 418 315.7 401 378.8 388.8C442 376.7 505 369.3 568.2 371.7C631.3 374 694.7 386 757.8 386.2C821 386.3 884 374.7 947.2 367C1010.3 359.3 1073.7 355.7 1136.8 361.5C1200 367.3 1263 382.7 1326.2 388.7C1389.3 394.7 1452.7 391.3 1515.8 388.7C1579 386 1642 384 1705.2 379.5C1768.3 375 1831.7 368 1894.8 373C1958 378 2021 395 2084.2 394.7C2147.3 394.3 2210.7 376.7 2273.8 375.8C2337 375 2400 391 2463.2 394.2C2526.3 397.3 2589.7 387.7 2652.8 378.8C2716 370 2779 362 2842.2 370.7C2905.3 379.3 2968.7 404.7 3031.8 408C3095 411.3 3158 392.7 3221.2 396.3C3284.3 400 3347.7 426 3410.8 434.8C3474 443.7 3537 435.3 3568.5 431.2L3600 427L3600 601L3568.5 601C3537 601 3474 601 3410.8 601C3347.7 601 3284.3 601 3221.2 601C3158 601 3095 601 3031.8 601C2968.7 601 2905.3 601 2842.2 601C2779 601 2716 601 2652.8 601C2589.7 601 2526.3 601 2463.2 601C2400 601 2337 601 2273.8 601C2210.7 601 2147.3 601 2084.2 601C2021 601 1958 601 1894.8 601C1831.7 601 1768.3 601 1705.2 601C1642 601 1579 601 1515.8 601C1452.7 601 1389.3 601 1326.2 601C1263 601 1200 601 1136.8 601C1073.7 601 1010.3 601 947.2 601C884 601 821 601 757.8 601C694.7 601 631.3 601 568.2 601C505 601 442 601 378.8 601C315.7 601 252.3 601 189.2 601C126 601 63 601 31.5 601L0 601Z">
  </path>
</svg>