<?xml version="1.0" encoding="UTF-8" standalone="no"?>
<!DOCTYPE svg PUBLIC "-//W3C//DTD SVG 20010904//EN" "http://www.w3.org/TR/2001/REC-SVG-20010904/DTD/svg10.dtd">

<svg xmlns="http://www.w3.org/2000/svg"
  viewBox="0 0 1500 800" 
  fill="#7ebca7">
  <path 
    d="M0 461L31.5 464.7C63 468.3 126 475.7 189.2 486C252.3 496.3 315.7 509.7 378.8 516.3C442 523 505 523 568.2 520.2C631.3 517.3 694.7 511.7 757.8 507C821 502.3 884 498.7 947.2 492.2C1010.3 485.7 1073.7 476.3 1136.8 480.3C1200 484.3 1263 501.7 1326.2 508.5C1389.3 515.3 1452.7 511.7 1515.8 508.3C1579 505 1642 502 1705.2 498.3C1768.3 494.7 1831.7 490.3 1894.8 486C1958 481.7 2021 477.3 2084.2 474.3C2147.3 471.3 2210.7 469.7 2273.8 468.7C2337 467.7 2400 467.3 2463.2 473.7C2526.3 480 2589.7 493 2652.8 497.3C2716 501.7 2779 497.3 2842.2 498.7C2905.3 500 2968.7 507 3031.8 501.7C3095 496.3 3158 478.7 3221.2 477.8C3284.3 477 3347.7 493 3410.8 492.5C3474 492 3537 475 3568.5 466.5L3600 458L3600 601L3568.5 601C3537 601 3474 601 3410.8 601C3347.7 601 3284.3 601 3221.2 601C3158 601 3095 601 3031.8 601C2968.7 601 2905.3 601 2842.2 601C2779 601 2716 601 2652.8 601C2589.7 601 2526.3 601 2463.2 601C2400 601 2337 601 2273.8 601C2210.7 601 2147.3 601 2084.2 601C2021 601 1958 601 1894.8 601C1831.7 601 1768.3 601 1705.2 601C1642 601 1579 601 1515.8 601C1452.7 601 1389.3 601 1326.2 601C1263 601 1200 601 1136.8 601C1073.7 601 1010.3 601 947.2 601C884 601 821 601 757.8 601C694.7 601 631.3 601 568.2 601C505 601 442 601 378.8 601C315.7 601 252.3 601 189.2 601C126 601 63 601 31.5 601L0 601Z">
  </path>
</svg>