<?xml version="1.0" encoding="UTF-8" standalone="no"?>
<!DOCTYPE svg PUBLIC "-//W3C//DTD SVG 20010904//EN" "http://www.w3.org/TR/2001/REC-SVG-20010904/DTD/svg10.dtd">

<svg xmlns="http://www.w3.org/2000/svg"
  viewBox="0 0 1500 400"
  fill="#c9ffe5">
  <path 
    d="M0 319L31.5 316C63 313 126 307 189.2 317C252.3 327 315.7 353 378.8 364C442 375 505 371 568.2 371.3C631.3 371.7 694.7 376.3 757.8 375.8C821 375.3 884 369.7 947.2 367.5C1010.3 365.3 1073.7 366.7 1136.8 357.8C1200 349 1263 330 1326.2 337C1389.3 344 1452.7 377 1515.8 378.7C1579 380.3 1642 350.7 1705.2 341.5C1768.3 332.3 1831.7 343.7 1894.8 348.2C1958 352.7 2021 350.3 2084.2 341.8C2147.3 333.3 2210.7 318.7 2273.8 323C2337 327.3 2400 350.7 2463.2 367C2526.3 383.3 2589.7 392.7 2652.8 399.8C2716 407 2779 412 2842.2 412C2905.3 412 2968.7 407 3031.8 394.5C3095 382 3158 362 3221.2 354.7C3284.3 347.3 3347.7 352.7 3410.8 351.7C3474 350.7 3537 343.3 3568.5 339.7L3600 336L3600 601L3568.5 601C3537 601 3474 601 3410.8 601C3347.7 601 3284.3 601 3221.2 601C3158 601 3095 601 3031.8 601C2968.7 601 2905.3 601 2842.2 601C2779 601 2716 601 2652.8 601C2589.7 601 2526.3 601 2463.2 601C2400 601 2337 601 2273.8 601C2210.7 601 2147.3 601 2084.2 601C2021 601 1958 601 1894.8 601C1831.7 601 1768.3 601 1705.2 601C1642 601 1579 601 1515.8 601C1452.7 601 1389.3 601 1326.2 601C1263 601 1200 601 1136.8 601C1073.7 601 1010.3 601 947.2 601C884 601 821 601 757.8 601C694.7 601 631.3 601 568.2 601C505 601 442 601 378.8 601C315.7 601 252.3 601 189.2 601C126 601 63 601 31.5 601L0 601Z">
  </path>
</svg>