<?xml version="1.0" encoding="UTF-8" standalone="no"?>
<!DOCTYPE svg PUBLIC "-//W3C//DTD SVG 20010904//EN" "http://www.w3.org/TR/2001/REC-SVG-20010904/DTD/svg10.dtd">

<svg xmlns="http://www.w3.org/2000/svg"
  viewBox="0 0 1500 800" 
  fill="#66a693">
  <path 
    d="M0 566L31.5 558.3C63 550.7 126 535.3 189.2 531C252.3 526.7 315.7 533.3 378.8 540.8C442 548.3 505 556.7 568.2 557.7C631.3 558.7 694.7 552.3 757.8 551.7C821 551 884 556 947.2 553.8C1010.3 551.7 1073.7 542.3 1136.8 535.5C1200 528.7 1263 524.3 1326.2 529.8C1389.3 535.3 1452.7 550.7 1515.8 549.2C1579 547.7 1642 529.3 1705.2 526.2C1768.3 523 1831.7 535 1894.8 544.5C1958 554 2021 561 2084.2 557.2C2147.3 553.3 2210.7 538.7 2273.8 531.7C2337 524.7 2400 525.3 2463.2 530.3C2526.3 535.3 2589.7 544.7 2652.8 545.8C2716 547 2779 540 2842.2 540.5C2905.3 541 2968.7 549 3031.8 547.2C3095 545.3 3158 533.7 3221.2 533.2C3284.3 532.7 3347.7 543.3 3410.8 549.2C3474 555 3537 556 3568.5 556.5L3600 557L3600 601L3568.5 601C3537 601 3474 601 3410.8 601C3347.7 601 3284.3 601 3221.2 601C3158 601 3095 601 3031.8 601C2968.7 601 2905.3 601 2842.2 601C2779 601 2716 601 2652.8 601C2589.7 601 2526.3 601 2463.2 601C2400 601 2337 601 2273.8 601C2210.7 601 2147.3 601 2084.2 601C2021 601 1958 601 1894.8 601C1831.7 601 1768.3 601 1705.2 601C1642 601 1579 601 1515.8 601C1452.7 601 1389.3 601 1326.2 601C1263 601 1200 601 1136.8 601C1073.7 601 1010.3 601 947.2 601C884 601 821 601 757.8 601C694.7 601 631.3 601 568.2 601C505 601 442 601 378.8 601C315.7 601 252.3 601 189.2 601C126 601 63 601 31.5 601L0 601Z">
  </path>
</svg>