<?xml version="1.0" encoding="UTF-8" standalone="no"?>
<!DOCTYPE svg PUBLIC "-//W3C//DTD SVG 20010904//EN"
              "http://www.w3.org/TR/2001/REC-SVG-20010904/DTD/svg10.dtd">

<svg xmlns="http://www.w3.org/2000/svg"
     width="0.902778in" height="1.01389in"
     viewBox="0 0 65 73">
  <path id="Selection"
        fill="#FFFFFF"
        d="M 0.00,0.00
           C 0.00,0.00 65.00,0.00 65.00,0.00
             65.00,0.00 65.00,16.00 65.00,16.00
             65.00,16.00 0.00,16.00 0.00,16.00
             0.00,16.00 0.00,0.00 0.00,0.00 Z
           M 3.00,29.00
           C 3.00,29.00 3.00,26.00 3.00,26.00
             3.00,26.00 65.00,26.00 65.00,26.00
             65.00,26.00 65.00,43.00 65.00,43.00
             65.00,43.00 19.00,43.00 19.00,43.00
             19.00,43.00 19.00,45.99 19.00,45.99
             19.00,45.99 16.00,46.00 16.00,46.00
             16.00,46.00 16.00,54.00 16.00,54.00
             16.00,54.00 18.99,54.00 18.99,54.00
             18.99,54.00 19.00,57.00 19.00,57.00
             19.00,57.00 65.00,57.00 65.00,57.00
             65.00,57.00 65.00,73.00 65.00,73.00
             65.00,73.00 3.00,73.00 3.00,73.00
             3.00,73.00 3.00,70.00 3.00,70.00
             3.00,70.00 0.00,70.00 0.00,70.00
             0.00,70.00 0.00,29.00 0.00,29.00
             0.00,29.00 3.00,29.00 3.00,29.00 Z" />
</svg>
