<?xml version="1.0" encoding="UTF-8" standalone="no"?>
<!DOCTYPE svg PUBLIC "-//W3C//DTD SVG 20010904//EN" "http://www.w3.org/TR/2001/REC-SVG-20010904/DTD/svg10.dtd">

<svg xmlns="http://www.w3.org/2000/svg"
  viewBox="0 0 1500 800"
  fill="#97d2bb">
  <path 
    d="M0 465L31.5 459.5C63 454 126 443 189.2 445.2C252.3 447.3 315.7 462.7 378.8 469C442 475.3 505 472.7 568.2 464.8C631.3 457 694.7 444 757.8 438.2C821 432.3 884 433.7 947.2 433.3C1010.3 433 1073.7 431 1136.8 430.8C1200 430.7 1263 432.3 1326.2 429.2C1389.3 426 1452.7 418 1515.8 423.5C1579 429 1642 448 1705.2 451.5C1768.3 455 1831.7 443 1894.8 436.2C1958 429.3 2021 427.7 2084.2 427.5C2147.3 427.3 2210.7 428.7 2273.8 438.3C2337 448 2400 466 2463.2 463.2C2526.3 460.3 2589.7 436.7 2652.8 434.3C2716 432 2779 451 2842.2 456.2C2905.3 461.3 2968.7 452.7 3031.8 450.8C3095 449 3158 454 3221.2 453.5C3284.3 453 3347.7 447 3410.8 447C3474 447 3537 453 3568.5 456L3600 459L3600 601L3568.5 601C3537 601 3474 601 3410.8 601C3347.7 601 3284.3 601 3221.2 601C3158 601 3095 601 3031.8 601C2968.7 601 2905.3 601 2842.2 601C2779 601 2716 601 2652.8 601C2589.7 601 2526.3 601 2463.2 601C2400 601 2337 601 2273.8 601C2210.7 601 2147.3 601 2084.2 601C2021 601 1958 601 1894.8 601C1831.7 601 1768.3 601 1705.2 601C1642 601 1579 601 1515.8 601C1452.7 601 1389.3 601 1326.2 601C1263 601 1200 601 1136.8 601C1073.7 601 1010.3 601 947.2 601C884 601 821 601 757.8 601C694.7 601 631.3 601 568.2 601C505 601 442 601 378.8 601C315.7 601 252.3 601 189.2 601C126 601 63 601 31.5 601L0 601Z">
  </path>
</svg>