<?xml version="1.0" encoding="UTF-8" standalone="no"?>
<!DOCTYPE svg PUBLIC "-//W3C//DTD SVG 20010904//EN" "http://www.w3.org/TR/2001/REC-SVG-20010904/DTD/svg10.dtd">

<svg xmlns="http://www.w3.org/2000/svg"
  viewBox="0 0 370 73"
  width="370">
  <g
    fill="#1aa179"
    stroke-width="0">
    <path
      d="M 0.00,0.00
        C 0.00,0.00 62.00,0.00 62.00,0.00
          62.00,0.00 62.00,3.00 62.00,3.00
          62.00,3.00 65.00,3.00 65.00,3.00
          65.00,3.00 65.00,40.00 65.00,40.00
          65.00,40.00 62.00,40.00 62.00,40.00
          62.00,40.00 62.00,43.00 62.00,43.00
          62.00,43.00 0.00,43.00 0.00,43.00
          0.00,43.00 0.00,29.00 0.00,29.00
          0.00,29.00 3.00,29.00 3.00,29.00
          3.00,29.00 3.00,26.00 3.00,26.00
          3.00,26.00 46.00,26.00 46.00,26.00
          46.00,26.00 46.00,23.00 46.00,23.00
          46.00,23.00 49.00,23.00 49.00,23.00
          49.00,23.00 49.00,19.00 49.00,19.00
          49.00,19.00 46.00,19.00 46.00,19.00
          46.00,19.00 46.00,16.00 46.00,16.00
          46.00,16.00 0.00,16.00 0.00,16.00
          0.00,16.00 0.00,0.00 0.00,0.00 Z
        M 75.00,0.00
        C 75.00,0.00 90.00,0.00 90.00,0.00
          90.00,0.00 90.00,23.00 90.00,23.00
          90.00,23.00 93.00,23.00 93.00,23.00
          93.00,23.00 93.00,26.00 93.00,26.00
          93.00,26.00 122.00,26.00 122.00,26.00
          122.00,26.00 122.00,23.00 122.00,23.00
          122.00,23.00 125.00,23.00 125.00,23.00
          125.00,23.00 125.00,0.00 125.00,0.00
          125.00,0.00 140.00,0.00 140.00,0.00
          140.00,0.00 140.00,73.00 140.00,73.00
          140.00,73.00 125.00,73.00 125.00,73.00
          125.00,73.00 125.00,45.00 125.00,45.00
          125.00,45.00 122.00,45.00 122.00,45.00
          122.00,45.00 122.00,42.00 122.00,42.00
          122.00,42.00 93.00,42.00 93.00,42.00
          93.00,42.00 93.00,46.00 93.00,46.00
          93.00,46.00 90.00,46.00 90.00,46.00
          90.00,46.00 90.00,73.00 90.00,73.00
          90.00,73.00 75.00,73.00 75.00,73.00
          75.00,73.00 75.00,0.00 75.00,0.00 Z
        M 150.00,0.00
        C 150.00,0.00 215.00,0.00 215.00,0.00
          215.00,0.00 215.00,16.00 215.00,16.00
          215.00,16.00 150.00,16.00 150.00,16.00
          150.00,16.00 150.00,0.00 150.00,0.00 Z
        M 225.00,0.00
        C 225.00,0.00 262.00,0.00 262.00,0.00
          262.00,0.00 262.00,3.00 262.00,3.00
          262.00,3.00 265.00,3.00 265.00,3.00
          265.00,3.00 265.00,55.00 265.00,55.00
          265.00,55.00 268.00,55.00 268.00,55.00
          268.00,55.00 268.00,58.00 268.00,58.00
          268.00,58.00 271.00,58.00 271.00,58.00
          271.00,58.00 271.00,55.00 271.00,55.00
          271.00,55.00 274.00,55.00 274.00,55.00
          274.00,55.00 274.00,0.00 274.00,0.00
          274.00,0.00 290.00,0.00 290.00,0.00
          290.00,0.00 290.00,70.00 290.00,70.00
          290.00,70.00 286.99,69.99 286.99,69.99
          286.99,69.99 287.00,73.00 287.00,73.00
          287.00,73.00 252.00,73.00 252.00,73.00
          252.00,73.00 252.00,70.00 252.00,70.00
          252.00,70.00 249.00,70.00 249.00,70.00
          249.00,70.00 249.00,20.00 249.00,20.00
          249.00,20.00 246.00,20.00 246.00,20.00
          246.00,20.00 246.00,16.00 246.00,16.00
          246.00,16.00 225.00,16.00 225.00,16.00
          225.00,16.00 225.00,0.00 225.00,0.00 Z
        M 303.00,3.00
        C 303.00,3.00 303.00,0.00 303.00,0.00
          303.00,0.00 365.00,0.00 365.00,0.00
          365.00,0.00 365.00,16.00 365.00,16.00
          365.00,16.00 319.00,16.00 319.00,16.00
          319.00,16.00 319.00,19.00 319.00,19.00
          319.00,19.00 316.00,19.00 316.00,19.00
          316.00,19.00 316.00,54.00 316.00,54.00
          316.00,54.00 319.00,54.00 319.00,54.00
          319.00,54.00 319.00,57.00 319.00,57.00
          319.00,57.00 347.00,57.00 347.00,57.00
          347.00,57.00 347.00,54.00 347.00,54.00
          347.00,54.00 350.00,54.00 350.00,54.00
          350.00,54.00 350.00,43.00 350.00,43.00
          350.00,43.00 347.00,43.00 347.00,43.00
          347.00,43.00 347.00,40.00 347.00,40.00
          347.00,40.00 326.00,40.00 326.00,40.00
          326.00,40.00 326.00,26.00 326.00,26.00
          326.00,26.00 362.00,26.00 362.00,26.00
          362.00,26.00 362.00,29.00 362.00,29.00
          362.00,29.00 365.00,29.00 365.00,29.00
          365.00,29.00 365.00,70.00 365.00,70.00
          365.00,70.00 362.00,70.00 362.00,70.00
          362.00,70.00 362.00,73.00 362.00,73.00
          362.00,73.00 303.00,73.00 303.00,73.00
          303.00,73.00 303.00,70.00 303.00,70.00
          303.00,70.00 300.00,70.00 300.00,70.00
          300.00,70.00 300.00,3.00 300.00,3.00
          300.00,3.00 303.00,3.00 303.00,3.00 Z
        M 154.00,26.00
        C 154.00,26.00 215.00,26.00 215.00,26.00
          215.00,26.00 215.00,43.00 215.00,43.00
          215.00,43.00 170.00,43.00 170.00,43.00
          170.00,43.00 170.00,46.00 170.00,46.00
          170.00,46.00 167.00,46.00 167.00,46.00
          167.00,46.00 167.00,54.00 167.00,54.00
          167.00,54.00 170.00,54.00 170.00,54.00
          170.00,54.00 170.00,57.00 170.00,57.00
          170.00,57.00 215.00,57.00 215.00,57.00
          215.00,57.00 215.00,73.00 215.00,73.00
          215.00,73.00 153.00,73.00 153.00,73.00
          153.00,73.00 153.00,70.00 153.00,70.00
          153.00,70.00 150.00,70.00 150.00,70.00
          150.00,70.00 150.00,30.00 150.00,30.00
          150.00,30.00 154.00,30.00 154.00,30.00
          154.00,30.00 154.00,26.00 154.00,26.00 Z
        M 225.00,26.00
        C 225.00,26.00 241.00,26.00 241.00,26.00
          241.00,26.00 241.00,73.00 241.00,73.00
          241.00,73.00 225.00,73.00 225.00,73.00
          225.00,73.00 225.00,26.00 225.00,26.00 Z
        M 0.00,57.00
        C 0.00,57.00 65.00,57.00 65.00,57.00
          65.00,57.00 65.00,73.00 65.00,73.00
          65.00,73.00 0.00,73.00 0.00,73.00
          0.00,73.00 0.00,57.00 0.00,57.00 Z
        M 311.33,168.00" />
  </g>
</svg>